<?xml version="1.0" encoding="utf-8"?>
<!-- Generator: Adobe Illustrator 17.0.0, SVG Export Plug-In . SVG Version: 6.00 Build 0)  -->
<!DOCTYPE svg PUBLIC "-//W3C//DTD SVG 1.1//EN" "http://www.w3.org/Graphics/SVG/1.1/DTD/svg11.dtd">
<svg version="1.1" id="Background_xA0_Image_1_" xmlns="http://www.w3.org/2000/svg" xmlns:xlink="http://www.w3.org/1999/xlink"
	 x="0px" y="0px" width="123.603px" height="85.103px" viewBox="0 0 123.603 85.103" enable-background="new 0 0 123.603 85.103"
	 xml:space="preserve">
<g>
	<polygon fill="#FFFFFF" points="51.771,10.634 21.554,50.981 31.164,50.981 51.771,23.465 58.587,32.566 63.391,26.15 	"/>
	<polygon fill="#FFFFFF" points="72.378,50.981 81.988,50.981 68.196,32.566 63.391,38.982 	"/>
	<polygon opacity="0.9" fill="#FFFFFF" enable-background="new    " points="44.795,50.981 54.405,50.981 63.391,38.982 
		58.587,32.566 	"/>
	<polygon opacity="0.9" fill="#FFFFFF" enable-background="new    " points="95.619,50.981 105.229,50.981 75.012,10.634 
		63.391,26.15 68.196,32.566 75.012,23.465 	"/>
	<polygon opacity="0.7" fill="#FFFFFF" enable-background="new    " points="58.587,32.566 63.391,38.982 68.196,32.566 
		63.391,26.15 	"/>
</g>
<rect x="15.787" y="56.609" fill="none" width="95.17" height="14.699"/>
<g enable-background="new    ">
	<path fill="#FFFFFF" d="M31.318,58.335l-4.001,5.334h-0.456l-3.913-5.352v8.932h-2.316V54.966h2.667l3.843,5.281l3.843-5.281h2.65
		v12.283h-2.316V58.335z"/>
	<path fill="#FFFFFF" d="M44.531,64.915h-6.422l-1.053,2.316h-2.51l5.51-12.283h2.527l5.51,12.283h-2.527L44.531,64.915z
		 M41.32,57.527l-2.281,5.229h4.562L41.32,57.527z"/>
	<path fill="#FFFFFF" d="M56.533,57.914c-0.421-0.702-1.579-1.369-2.913-1.369c-1.72,0-2.544,0.72-2.544,1.632
		c0,1.07,1.264,1.369,2.738,1.544c2.562,0.316,4.948,0.983,4.948,3.913c0,2.738-2.421,3.913-5.159,3.913
		c-2.509,0-4.439-0.771-5.352-3.018l1.931-1c0.544,1.351,1.965,1.947,3.457,1.947c1.457,0,2.825-0.509,2.825-1.843
		c0-1.158-1.21-1.632-2.843-1.807c-2.509-0.299-4.826-0.966-4.826-3.721c0-2.526,2.492-3.562,4.756-3.579
		c1.913,0,3.896,0.544,4.825,2.438L56.533,57.914z"/>
	<path fill="#FFFFFF" d="M68.132,57.914c-0.422-0.702-1.579-1.369-2.913-1.369c-1.72,0-2.545,0.72-2.545,1.632
		c0,1.07,1.264,1.369,2.738,1.544c2.562,0.316,4.948,0.983,4.948,3.913c0,2.738-2.422,3.913-5.159,3.913
		c-2.51,0-4.439-0.771-5.352-3.018l1.931-1c0.543,1.351,1.965,1.947,3.457,1.947c1.456,0,2.825-0.509,2.825-1.843
		c0-1.158-1.211-1.632-2.843-1.807c-2.51-0.299-4.826-0.966-4.826-3.721c0-2.526,2.492-3.562,4.755-3.579
		c1.913,0,3.896,0.544,4.825,2.438L68.132,57.914z"/>
	<path fill="#FFFFFF" d="M76.782,60.019l3.265-5.071h2.79v0.105L77.94,62.16v5.071h-2.315V62.16l-4.721-7.106v-0.105h2.755
		L76.782,60.019z"/>
	<path fill="#FFFFFF" d="M90.521,67.284h-2.403l-5.106-12.336h2.597l3.702,9.563l3.721-9.563h2.597L90.521,67.284z"/>
	<path fill="#FFFFFF" d="M106.209,67.231h-9.194c0-4.089,0-8.194,0-12.283h9.194v2.246h-6.896v2.825h6.65v2.158h-6.65v2.772h6.896
		V67.231z"/>
</g>
</svg>
